<svg xmlns="http://www.w3.org/2000/svg" version="1.1" xmlns:xlink="http://www.w3.org/1999/xlink" width="512" height="512" x="0" y="0" viewBox="0 0 24 24" style="enable-background:new 0 0 512 512" xml:space="preserve" class=""><g><path d="M19.54 9H19V8A7 7 0 0 0 5 8v1h-.54a1.962 1.962 0 0 0-1.96 1.96v10.08A1.962 1.962 0 0 0 4.46 23h15.08a1.962 1.962 0 0 0 1.96-1.96V10.96A1.962 1.962 0 0 0 19.54 9zM6 8a6 6 0 0 1 12 0v1h-2V8a4 4 0 0 0-8 0v1H6zm9 1H9V8a3 3 0 0 1 3-3 3.017 3.017 0 0 1 3 3zm5.5 12.04a.95.95 0 0 1-.96.96H4.46a.95.95 0 0 1-.96-.96V10.96a.95.95 0 0 1 .96-.96h15.08a.95.95 0 0 1 .96.96z" fill="#000000" opacity="1" data-original="#000000" class=""></path><path d="M12 12a2.5 2.5 0 0 0-2.5 2.5 2.476 2.476 0 0 0 1 2v2a1.5 1.5 0 0 0 3 0v-2a2.476 2.476 0 0 0 1-2A2.5 2.5 0 0 0 12 12zm.748 3.8a.5.5 0 0 0-.248.432V18.5a.5.5 0 0 1-1 0v-2.27a.5.5 0 0 0-.248-.432 1.5 1.5 0 1 1 1.5 0z" fill="#000000" opacity="1" data-original="#000000" class=""></path></g></svg>