<svg xmlns="http://www.w3.org/2000/svg" version="1.1" xmlns:xlink="http://www.w3.org/1999/xlink" width="512" height="512" x="0" y="0" viewBox="0 0 512 512" style="enable-background:new 0 0 512 512" xml:space="preserve" class=""><g><path d="M372.58 223.278H183.734v-86.402c0-12.711 5.015-24.633 14.122-33.567 9.102-8.93 21.113-13.662 33.845-13.475 25.44.482 46.136 22.036 46.136 48.046v7.123c0 24.765 20.148 44.912 44.912 44.912 24.765 0 44.912-20.148 44.912-44.912v-8.127c0-36.759-14.421-71.286-40.606-97.218C301.199 14.051 267.065 0 230.801 0c-.453 0-.91.003-1.364.006C154.708.73 93.909 62.84 93.909 138.457v84.821H88.99c-24.41 0-44.271 19.86-44.271 44.271v200.18C44.72 492.14 64.58 512 88.991 512H372.58c24.41 0 44.271-19.86 44.271-44.271v-200.18c-.001-24.411-19.861-44.271-44.271-44.271zm-253.007-84.821c0-61.603 49.396-112.2 110.112-112.789.37-.003.738-.005 1.107-.005 29.456 0 57.191 11.421 78.203 32.229 21.281 21.075 33 49.125 33 78.983v8.128c0 10.613-8.635 19.248-19.248 19.248s-19.248-8.635-19.248-19.248v-7.123c0-39.896-31.992-72.959-71.313-73.705-19.705-.379-38.246 7.019-52.305 20.815-14.065 13.802-21.812 32.228-21.812 51.888v86.401h-38.496v-84.822zm271.613 329.272c0 10.259-8.347 18.607-18.607 18.607H88.991c-10.259 0-18.607-8.347-18.607-18.607v-200.18c0-10.259 8.347-18.607 18.607-18.607H372.58c10.259 0 18.607 8.347 18.607 18.607v200.18z" fill="#000000" opacity="1" data-original="#000000" class=""></path><path d="M230.785 274.179c-31.604 0-57.317 25.712-57.317 57.316 0 16.23 6.931 31.648 18.821 42.446v74.326c0 7.086 5.745 12.832 12.832 12.832h51.328c7.087 0 12.832-5.746 12.832-12.832v-74.326c11.89-10.798 18.821-26.216 18.821-42.446-.001-31.604-25.713-57.316-57.317-57.316zm18.25 83.167a12.835 12.835 0 0 0-5.418 10.474v67.615h-25.664V367.82c0-4.163-2.02-8.068-5.418-10.474-8.392-5.941-13.402-15.604-13.402-25.852 0-17.453 14.199-31.652 31.653-31.652s31.653 14.199 31.653 31.652c-.002 10.247-5.012 19.911-13.404 25.852zM460.862 216.336l-44.822-25.878c-6.136-3.543-13.984-1.441-17.529 4.697-3.544 6.138-1.441 13.984 4.697 17.529l44.822 25.878a12.825 12.825 0 0 0 17.528-4.697c3.545-6.138 1.441-13.985-4.696-17.529zM409.635 163.076c2.176 0 4.383-.556 6.404-1.722l44.822-25.877c6.138-3.543 8.241-11.391 4.697-17.529-3.543-6.138-11.392-8.242-17.529-4.697l-44.822 25.877c-6.138 3.543-8.241 11.391-4.697 17.529a12.827 12.827 0 0 0 11.125 6.419z" fill="#000000" opacity="1" data-original="#000000" class=""></path></g></svg>